<svg xmlns="http://www.w3.org/2000/svg" width="168" height="64" fill="none" viewBox="0 0 168 64">
    <path fill="#238BFE" d="M94.544 20.464c3.296 0 5.872.736 7.728 2.208 1.888 1.44 2.832 3.424 2.832 5.952s-.944 4.528-2.832 6c-1.856 1.44-4.432 2.16-7.728 2.16-3.296 0-5.888-.72-7.776-2.16-1.856-1.472-2.784-3.472-2.784-6s.928-4.512 2.784-5.952c1.888-1.472 4.48-2.208 7.776-2.208zm-11.088-2.016c-.736 0-1.28-.256-1.632-.768-.352-.512-.528-1.12-.528-1.824s.176-1.312.528-1.824c.352-.512.896-.768 1.632-.768h8.016v-2.352c0-.896.304-1.552.912-1.968.64-.416 1.36-.624 2.16-.624s1.504.208 2.112.624c.64.416.96 1.072.96 1.968v2.352h7.536c.736 0 1.28.256 1.632.768.352.512.528 1.12.528 1.824s-.176 1.312-.528 1.824c-.352.512-.896.768-1.632.768H83.456zM94.544 32.08c1.728 0 2.992-.32 3.792-.96.832-.672 1.248-1.504 1.248-2.496s-.416-1.808-1.248-2.448c-.8-.672-2.064-1.008-3.792-1.008-1.728 0-3.008.336-3.84 1.008-.8.64-1.2 1.456-1.2 2.448s.4 1.824 1.2 2.496c.832.64 2.112.96 3.84.96zm21.696-11.136h4.56c.736 0 1.28.256 1.632.768.352.512.528 1.136.528 1.872 0 .736-.176 1.36-.528 1.872-.352.512-.896.768-1.632.768h-4.56V39.04c0 .896-.32 1.552-.96 1.968-.608.416-1.296.624-2.064.624-.8 0-1.52-.208-2.16-.624-.608-.416-.912-1.072-.912-1.968V11.008c0-.896.304-1.552.912-1.968.64-.416 1.36-.624 2.16-.624.768 0 1.456.208 2.064.624.64.416.96 1.072.96 1.968v9.936zM91.904 52.576c-1.536 0-2.608-.288-3.216-.864-.576-.576-.864-1.616-.864-3.12v-7.248c0-.896.304-1.552.912-1.968.64-.416 1.376-.624 2.208-.624.8 0 1.504.208 2.112.624.64.416.96 1.072.96 1.968v4.896c0 .736.368 1.104 1.104 1.104h20.016c.736 0 1.28.256 1.632.768.352.512.528 1.136.528 1.872 0 .704-.176 1.312-.528 1.824-.352.512-.896.768-1.632.768H91.904zm36.824-36.48c-.736 0-1.28-.256-1.632-.768-.352-.512-.528-1.12-.528-1.824 0-.736.176-1.36.528-1.872.352-.512.896-.768 1.632-.768h14.352c1.536 0 2.592.288 3.168.864.608.576.912 1.616.912 3.12v3.648c0 1.696-.224 3.152-.672 4.368-.416 1.216-1.248 2.384-2.496 3.504s-2.992 2.288-5.232 3.504c-2.208 1.216-5.104 2.672-8.688 4.368-.768.352-1.488.352-2.16 0-.672-.352-1.152-.848-1.44-1.488-.16-.288-.272-.608-.336-.96-.032-.352-.016-.688.048-1.008.064-.352.192-.672.384-.96.224-.288.544-.528.96-.72 3.2-1.472 5.696-2.688 7.488-3.648 1.824-.992 3.184-1.856 4.08-2.592.896-.736 1.44-1.44 1.632-2.112.224-.704.336-1.52.336-2.448V17.2c0-.736-.368-1.104-1.104-1.104h-11.232zm35.712 2.64c.768 0 1.328.256 1.68.768.352.512.528 1.136.528 1.872 0 .736-.176 1.376-.528 1.92-.352.512-.912.768-1.68.768h-4.512v8.208c0 .896-.32 1.552-.96 1.968-.608.416-1.312.624-2.112.624s-1.52-.208-2.16-.624c-.608-.416-.912-1.072-.912-1.968V11.008c0-.896.304-1.552.912-1.968.64-.416 1.36-.624 2.16-.624s1.504.208 2.112.624c.64.416.96 1.072.96 1.968v7.728h4.512zm-32.688 25.728c0-3.104 1.248-5.424 3.744-6.96 2.528-1.568 6-2.352 10.416-2.352s7.872.784 10.368 2.352c2.528 1.536 3.792 3.856 3.792 6.96 0 3.136-1.264 5.472-3.792 7.008-2.496 1.536-5.952 2.304-10.368 2.304s-7.888-.768-10.416-2.304c-2.496-1.536-3.744-3.872-3.744-7.008zm22.224 0c0-1.312-.624-2.368-1.872-3.168-1.216-.832-3.28-1.248-6.192-1.248-1.472 0-2.72.112-3.744.336-1.024.192-1.856.48-2.496.864-.64.384-1.104.848-1.392 1.392-.288.544-.432 1.152-.432 1.824 0 .672.144 1.28.432 1.824.288.544.752 1.008 1.392 1.392.64.384 1.472.672 2.496.864 1.024.224 2.272.336 3.744.336 2.912 0 4.976-.416 6.192-1.248 1.248-.8 1.872-1.856 1.872-3.168z"/>
    <path fill="#238BFE" fill-rule="evenodd" d="M40.834 59.429c8.854 0 16.032-7.178 16.032-16.032s-7.178-16.032-16.032-16.032-16.031 7.178-16.031 16.032 7.177 16.032 16.031 16.032zm.002-10.689c2.952 0 5.344-2.392 5.344-5.344 0-2.951-2.392-5.344-5.344-5.344-2.951 0-5.344 2.393-5.344 5.344 0 2.952 2.393 5.344 5.344 5.344zM46.031 7.244c-1.475-2.556-4.744-3.432-7.3-1.956L20.7 15.698l-3.869-6.7c-1.475-2.557-4.744-3.432-7.3-1.957-2.556 1.476-3.431 4.744-1.956 7.3l6.485 11.231.055.1c.742 1.284 1.936 2.144 3.265 2.495 1.316.347 2.765.195 4.037-.54.033-.018.065-.037.097-.057l22.562-13.026c2.556-1.476 3.432-4.744 1.956-7.3z" clip-rule="evenodd"/>
</svg>
