<svg xmlns="http://www.w3.org/2000/svg" fill="none" viewBox="0 0 16 16">
    <path stroke-linecap="round" stroke-linejoin="round" d="M9.333 6.667h3.176c.228 0 .451.058.65.168.198.111.365.27.484.464.12.193.188.414.198.64.01.228-.037.454-.139.657l-2.333 4.667c-.111.221-.281.408-.492.538-.211.13-.454.2-.702.199H7.497c-.108 0-.217-.013-.323-.04l-2.507-.627m4.666-6.666V3.333c0-.353-.14-.692-.39-.942S8.353 2 8 2h-.063c-.334 0-.604.27-.604.603 0 .476-.14.942-.405 1.338L4.667 7.333v6m4.666-6.666H8m-3.333 6.666H3.333c-.353 0-.692-.14-.942-.39S2 12.353 2 12V8c0-.354.14-.693.39-.943s.59-.39.943-.39H5"/>
</svg>
